#!OML:ASF F:\VICON\USERDATA\INSTALL\rory3\rory3.ASF
:FULLY-SPECIFIED
:DEGREES
416
root 0.255729 17.8945 -6.17774 176.185 -33.649 176.562
lowerback 19.1312 -1.39764 -3.94877
upperback 0.772411 -2.79945 0.782897
thorax -9.67393 -1.20303 3.87191
lowerneck -7.082 -9.68676 -7.84863
upperneck 2.22416 -12.7501 9.22328
head 2.90182 -6.19332 3.33388
rclavicle 4.74598e-014 1.19271e-015
rhumerus -75.0834 -21.1494 -35.7616
rradius 17.7881
rwrist 8.9102
rhand -8.84527 1.98367
rfingers 7.12502
rthumb 17.0954 -27.2842
lclavicle 4.74598e-014 1.19271e-015
lhumerus -74.3197 12.6676 62.7073
lradius 22.2873
lwrist -3.73898
lhand -1.18279 56.0788
lfingers 7.12502
lthumb 24.457 84.5374
rfemur -16.764 -3.64104 14.2624
rtibia 49.7502
rfoot -20.3915 -12.947
rtoes 3.39888
lfemur -4.68068 -5.04169 -29.5938
ltibia 25.7888
lfoot -10.2286 1.50815
ltoes 3.82209
417
root 0.311512 17.9508 -6.18546 174.679 -32.8926 178.48
lowerback 19.4838 -1.11961 -3.50063
upperback 0.79841 -2.30129 1.32343
thorax -9.88019 -0.97051 4.09511
lowerneck -6.575 -9.67074 -7.55593
upperneck 2.22385 -12.7704 8.98802
head 2.78706 -6.21872 3.24486
rclavicle 3.62782e-014 -8.34896e-015
rhumerus -74.8894 -21.6188 -35.4057
rradius 17.713
rwrist 9.19784
rhand -10.2048 1.94602
rfingers 7.12502
rthumb 15.7864 -27.4303
lclavicle 3.62782e-014 -8.34896e-015
lhumerus -73.6934 11.6043 63.9913
lradius 22.5984
lwrist -2.9351
lhand -1.47791 56.3442
lfingers 7.12502
lthumb 24.1741 84.8408
rfemur -16.5377 -2.23152 16.8595
rtibia 50.7526
rfoot -20.6859 -14.8265
rtoes 5.5464
lfemur -4.33486 -4.69126 -27.563
ltibia 25.6142
lfoot -10.043 1.75925
ltoes 2.96665
418
root 0.330395 17.9647 -6.1376 174.081 -32.7053 179.221
lowerback 19.7542 -1.07103 -3.08587
upperback 0.81232 -2.14263 1.49101
thorax -10.0378 -0.908429 4.01211
lowerneck -6.20313 -9.65948 -7.4169
upperneck 2.13623 -12.7696 8.7975
head 2.6789 -6.23104 3.18927
rclavicle -8.21229e-014 4.21423e-014
rhumerus -74.515 -22.1474 -35.4196
rradius 18.1513
rwrist 8.93116
rhand -11.1992 1.38901
rfingers 7.12502
rthumb 14.8286 -28.0604
lclavicle -8.21229e-014 4.21423e-014
lhumerus -72.7389 10.9806 64.9158
lradius 22.6403
lwrist -2.94689
lhand -1.43259 56.447
lfingers 7.12502
lthumb 24.2175 84.9378
rfemur -16.5687 -2.7734 17.7907
rtibia 51.8892
rfoot -20.46 -15.6903
rtoes 4.77596
lfemur -4.33399 -4.6329 -26.9009
ltibia 25.6027
lfoot -9.85368 1.88899
ltoes 3.00113
419
root 0.351523 17.9731 -6.09161 173.836 -32.3732 179.528
lowerback 19.67 -0.881464 -3.16771
upperback 0.949706 -1.90023 1.66592
thorax -9.85084 -0.797695 4.17842
lowerneck -5.91905 -9.64841 -7.54286
upperneck 1.8973 -12.7394 8.72832
head 2.5623 -6.22712 3.21004
rclavicle 5.59082e-015 1.86858e-014
rhumerus -73.9606 -22.9797 -35.1924
rradius 18.5681
rwrist 8.94758
rhand -11.7996 0.928408
rfingers 7.12502
rthumb 14.2501 -28.5627
lclavicle 5.59082e-015 1.86858e-014
lhumerus -71.4614 10.6534 65.8376
lradius 22.5743
lwrist -3.18433
lhand -0.790887 54.6211
lfingers 7.12502
lthumb 24.8326 83.0285
rfemur -16.8673 -3.31556 18.3037
rtibia 53.1424
rfoot -19.9658 -16.4262
rtoes 3.95773
lfemur -4.43453 -4.38268 -26.5983
ltibia 25.4821
lfoot -9.6078 2.01544
ltoes 4.30534
420
root 0.328016 17.9543 -5.97652 175.677 -33.004 177.062
lowerback 19.4414 -0.990868 -4.49919
upperback 0.836762 -2.37888 1.03721
thorax -9.7811 -0.972466 4.36813
lowerneck -5.96208 -9.64979 -7.82922
upperneck 1.87399 -12.7075 8.69361
head 2.575 -6.21159 3.24282
rclavicle 1.00237e-013 -3.06128e-014
rhumerus -72.765 -23.6118 -35.5881
rradius 18.5834
rwrist 8.64527
rhand -12.7611 0.916896
rfingers 7.12502
rthumb 13.3235 -28.6372
lclavicle 1.00237e-013 -3.06128e-014
lhumerus -70.181 10.7723 66.4269
lradius 22.5561
lwrist -3.74333
lhand -0.168908 52.4421
lfingers 7.12502
lthumb 25.4286 80.766
rfemur -17.9346 -5.71097 15.524
rtibia 54.9245
rfoot -19.8113 -15.3857
rtoes 4.13962
lfemur -5.07916 -4.51546 -29.2061
ltibia 25.2204
lfoot -9.14765 1.91154
ltoes 4.33266
421
root 0.342709 17.9662 -5.93092 174.948 -32.8133 177.97
lowerback 19.0489 -1.03369 -4.36905
upperback 1.30898 -2.3679 1.51341
thorax -9.02551 -1.01321 4.78176
lowerneck -6.56172 -9.52726 -8.11026
upperneck 2.1755 -12.4849 8.5974
head 2.75418 -6.08621 3.23554
rclavicle 2.33572e-014 -3.18055e-015
rhumerus -70.8119 -24.4132 -36.0978
rradius 18.0563
rwrist 8.89373
rhand -14.0914 1.33938
rfingers 7.12502
rthumb 12.041 -28.2942
lclavicle 2.33572e-014 -3.18055e-015
lhumerus -68.651 11.9096 66.2142
lradius 22.2031
lwrist -5.26019
lhand -0.924534 53.4457
lfingers 7.12502
lthumb 24.7045 81.8708
rfemur -17.8798 -6.35773 16.5826
rtibia 56.3915
rfoot -19.9284 -15.5098
rtoes 4.12808
lfemur -4.95273 -4.26909 -28.3825
ltibia 25.067
lfoot -8.94577 1.85389
ltoes 3.76028
